HIERARCHY
ROOT Hips
{
	OFFSET	0.000000	0.000000	0.000000
	CHANNELS 6 Xposition Yposition Zposition Zrotation Xrotation Yrotation
	JOINT LeftHip
	{
		OFFSET	4.750000	0.000000	0.000000
		CHANNELS 3 Zrotation Xrotation Yrotation
		JOINT LeftKnee
		{
			OFFSET	0.000000	-16.000000	0.000000
			CHANNELS 3 Zrotation Xrotation Yrotation
			JOINT LeftAnkle
			{
				OFFSET	0.000000	-17.000000	0.000000
				CHANNELS 3 Zrotation Xrotation Yrotation
				End Site
				{
					OFFSET	0.000000	-5.000000	-2.250000
				}
			}
		}
	}
	JOINT RightHip
	{
		OFFSET	-4.750000	0.000000	0.000000
		CHANNELS 3 Zrotation Xrotation Yrotation
		JOINT RightKnee
		{
			OFFSET	0.000000	-16.000000	0.000000
			CHANNELS 3 Zrotation Xrotation Yrotation
			JOINT RightAnkle
			{
				OFFSET	0.000000	-17.000000	0.000000
				CHANNELS 3 Zrotation Xrotation Yrotation
				End Site
				{
					OFFSET	0.000000	-5.000000	-2.250000
				}
			}
		}
	}
	JOINT Chest
	{
		OFFSET	0.000000	3.000000	-1.000000
		CHANNELS 3 Zrotation Xrotation Yrotation
		JOINT LeftCollar
		{
			OFFSET	0.000000	15.000000	1.000000
			CHANNELS 3 Zrotation Xrotation Yrotation
			JOINT LeftShoulder
			{
				OFFSET	6.500000	0.000000	0.000000
				CHANNELS 3 Zrotation Xrotation Yrotation
				JOINT LeftElbow
				{
					OFFSET	0.000000	-11.500000	0.000000
					CHANNELS 3 Zrotation Xrotation Yrotation
					JOINT LeftWrist
					{
						OFFSET	0.000000	-9.500000	0.000000
						CHANNELS 3 Zrotation Xrotation Yrotation
						End Site
						{
							OFFSET	0.000000	-5.000000	0.000000
						}
					}
				}
			}
		}
		JOINT RightCollar
		{
			OFFSET	0.000000	15.000000	1.000000
			CHANNELS 3 Zrotation Xrotation Yrotation
			JOINT RightShoulder
			{
				OFFSET	-6.500000	0.000000	0.000000
				CHANNELS 3 Zrotation Xrotation Yrotation
				JOINT RightElbow
				{
					OFFSET	0.000000	-11.500000	0.000000
					CHANNELS 3 Zrotation Xrotation Yrotation
					JOINT RightWrist
					{
						OFFSET	0.000000	-9.500000	0.000000
						CHANNELS 3 Zrotation Xrotation Yrotation
						End Site
						{
							OFFSET	0.000000	-5.000000	0.000000
						}
					}
				}
			}
		}
		JOINT Neck
		{
			OFFSET	0.000000	15.000000	1.000000
			CHANNELS 3 Zrotation Xrotation Yrotation
			JOINT Head
			{
				OFFSET	0.000000	8.000000	0.000000
				CHANNELS 3 Zrotation Xrotation Yrotation
				End Site
				{
					OFFSET	0.000000	6.500000	0.000000
				}
			}
		}
	}
}
MOTION
Frames:     12
Frame Time: 0.016667
-47.697334	34.714184	5.356534	3.871307	-0.312913	30.126495	6.359345	-31.899128	33.121632	1.856667	30.495314	2.320882	5.825442	-3.683577	39.767696	-2.453507	4.053700	-28.386091	-4.817806	42.798649	2.725799	15.388276	-23.246862	-22.208111	7.710990	12.106260	16.344938	-8.994689	-6.127911	-0.968043	0.975944	-14.324833	-49.902885	-26.352489	-80.111267	-29.762745	16.693375	12.147774	9.834070	-7.396505	-5.488432	-4.937000	2.080467	-8.282242	34.346027	41.158752	-70.116051	48.102718	-45.307411	12.112468	-27.323954	1.867975	21.903925	-0.548068	-17.819460	-7.903396	19.529259	
-47.898159	34.730698	5.053876	3.725725	-0.472586	30.831173	5.966909	-31.763939	33.217480	1.916468	29.207296	2.291115	6.136569	-3.701517	39.703266	-2.433748	4.293870	-28.610556	-4.824611	42.903339	2.730426	16.027811	-23.364941	-22.662388	8.506819	12.666612	16.374060	-8.508574	-6.135859	-0.916117	2.104851	-13.463442	-49.596558	-23.397684	-79.122391	-26.856192	16.537424	9.081950	9.776797	-6.912648	-5.529839	-4.890547	-0.075637	-7.338193	34.211723	41.752209	-70.294609	48.661110	-40.968727	12.850851	-28.846262	1.867975	21.903925	-0.548068	-17.839684	-7.713975	18.995687	
-48.087238	34.712303	4.669027	3.508857	-0.556041	31.656462	5.494247	-31.792664	33.371391	1.978460	27.836994	2.261512	6.189109	-3.584843	39.664333	-2.407504	4.614105	-28.748827	-4.822805	42.875576	2.729197	16.777330	-23.669411	-22.993282	9.220993	13.412141	16.722980	-8.749035	-5.972682	-0.917438	4.141006	-11.740774	-44.839981	-23.154057	-79.030731	-26.616983	15.399997	9.365105	10.254521	-7.140917	-5.350488	-4.888148	-2.221594	-6.476946	33.925705	42.241390	-70.438026	49.121849	-37.444946	14.005033	-29.747841	1.781445	21.829102	-0.522628	-17.830006	-8.006589	18.662292	
-48.252457	34.740150	4.455520	3.274191	-0.480585	32.332150	5.021298	-31.819643	33.444386	2.031928	26.626562	2.237043	6.600670	-3.910286	38.865593	-2.387898	4.854288	-28.892902	-4.822951	42.877823	2.729296	16.846336	-23.523218	-22.965101	10.179293	13.418407	16.998764	-8.992021	-5.968758	-0.942714	5.617198	-9.568777	-39.862228	-21.879107	-78.521736	-25.366402	14.321932	10.268858	11.425085	-7.382782	-5.329845	-4.910658	-3.778406	-6.476946	31.381424	41.046185	-70.081604	47.996872	-35.398243	13.896546	-28.595505	1.665133	21.905628	-0.488570	-17.808102	-7.794836	18.487438	
-48.123695	34.787552	4.358745	3.005061	-0.272646	33.075134	4.264034	-31.859165	33.044899	2.063463	25.900362	2.223089	6.556077	-4.194221	38.150459	-2.771489	5.126836	-29.403978	-4.821921	42.861992	2.728595	17.295563	-23.313848	-23.092304	10.418871	13.420059	17.329535	-9.315995	-5.963361	-0.976388	6.795261	-7.517698	-36.497742	-21.767147	-78.474533	-25.256691	15.010031	11.321647	12.489461	-7.705244	-5.302175	-4.940534	-5.434919	-6.954714	29.707918	39.363796	-69.544098	46.417797	-35.415718	13.005705	-25.802332	1.680218	22.133415	-0.493167	-17.958267	-7.651341	18.681276	
-48.143822	34.873169	4.504576	2.807345	-0.049434	33.617920	4.064060	-31.708113	33.085999	2.087472	25.341379	2.212707	6.533411	-4.509037	36.999592	-3.068468	5.472493	-29.751318	-4.807043	42.632317	2.718497	17.690174	-23.040953	-23.032118	10.898031	13.423469	17.668785	-9.480788	-6.119524	-1.019899	7.832829	-5.093410	-32.812248	-19.866133	-77.602943	-23.396889	16.773289	12.108238	13.858576	-7.880295	-5.446637	-4.983097	-6.713663	-8.393723	29.121704	36.820572	-68.643661	44.041882	-35.951065	12.652604	-22.988352	1.479880	22.211277	-0.434430	-18.160780	-7.576117	18.726946	
-48.161488	34.926495	4.469970	2.588259	0.306691	34.149189	3.496572	-31.733803	32.948750	2.126620	24.418791	2.196236	6.531751	-4.726149	36.435215	-3.049390	5.712465	-29.731455	-4.797222	42.479771	2.711855	17.975870	-22.810045	-22.983116	10.898031	13.423469	17.668785	-9.885859	-6.112203	-1.063055	9.036537	-2.369298	-28.904346	-17.794958	-76.475044	-21.378376	18.714384	12.762607	14.520597	-8.283401	-5.411513	-5.021236	-8.010195	-10.209718	28.774286	34.596943	-67.758339	41.977165	-36.594772	11.744593	-20.242331	1.484289	22.287802	-0.435778	-18.204468	-7.404124	18.947668	
-48.145649	34.989525	4.504608	2.417440	0.683445	34.484871	3.023436	-31.753290	32.699825	2.151860	23.816656	2.185922	6.554214	-5.142133	36.339275	-3.427925	6.063807	-30.065363	-4.762089	41.927917	2.688253	18.369633	-22.536634	-22.923584	11.057755	13.424635	17.674440	-10.128897	-6.107664	-1.088923	9.758720	0.397185	-25.127743	-15.568378	-74.991402	-19.220266	20.272413	13.317483	14.454748	-8.525242	-5.390310	-5.044000	-8.744182	-12.507239	28.191002	30.914557	-66.053513	38.589325	-36.737812	9.348914	-17.770224	1.479880	22.211277	-0.434430	-18.204285	-7.486095	18.926094	
-47.854004	35.101135	4.673639	2.142284	1.242261	34.775658	2.455423	-31.774368	32.723080	2.158276	23.662701	2.183340	7.058187	-5.587204	36.326729	-3.415444	6.223702	-30.051090	-4.708355	41.065033	2.652650	19.128729	-22.240526	-22.846325	11.536923	13.428229	17.852520	-10.614959	-6.098259	-1.140599	10.956880	3.479170	-20.596327	-13.533833	-73.305008	-17.262865	20.482918	13.847127	14.424747	-9.008874	-5.347619	-5.089252	-9.403554	-14.896025	27.786402	27.139563	-63.925259	35.167503	-36.075050	6.454871	-15.407012	1.397717	22.211838	-0.410315	-18.285023	-7.489056	18.936106	
-47.238129	35.170250	4.669071	1.861802	1.754345	34.944576	1.413455	-31.806459	32.174141	2.158053	23.668072	2.183429	6.656019	-5.764383	36.436375	-3.657857	6.242320	-30.185905	-4.689351	40.754307	2.640204	19.548265	-21.714739	-22.746813	11.700428	12.966214	17.857300	-11.019997	-6.090090	-1.183599	11.396693	6.675963	-16.034382	-11.516896	-71.202644	-15.341561	19.563402	14.128755	14.629907	-9.411848	-5.311753	-5.126684	-9.991464	-17.376766	27.341452	23.734318	-61.582714	32.139256	-34.271255	2.573291	-12.943720	1.397717	22.211838	-0.410315	-18.334864	-7.345190	18.982809	
-47.045822	35.263885	4.881616	1.464409	2.418694	35.050556	1.232416	-32.052700	32.090286	2.159285	23.638460	2.182935	6.541444	-6.047132	36.694592	-3.950531	6.666351	-30.111162	-4.636824	39.880127	2.606218	19.771210	-21.112026	-22.605118	11.864015	12.504217	18.426048	-11.752571	-6.232379	-1.293853	11.582691	9.749738	-10.910084	-9.924701	-69.127228	-13.843570	18.035803	14.099455	14.954039	-10.151475	-5.403682	-5.227374	-10.300763	-19.863184	26.946407	20.265736	-58.663975	29.130445	-31.881674	-2.793953	-9.274350	1.274457	22.212620	-0.374137	-18.464109	-7.268467	18.769279	
-46.790604	35.374371	4.984128	1.100725	2.987727	35.066898	0.662246	-32.065907	31.787640	2.181668	23.098335	2.174057	6.874847	-6.188346	37.367764	-3.938373	6.826109	-30.095406	-4.581824	38.940262	2.571299	20.169260	-20.618092	-22.417683	12.425764	12.230749	19.814800	-11.752571	-6.232379	-1.293853	11.601759	12.808187	-5.665609	-8.571967	-66.973930	-12.588659	15.985517	14.102640	15.375834	-10.151475	-5.403682	-5.227374	-10.738341	-22.341478	26.482033	16.989214	-55.268566	26.382143	-28.195454	-10.105539	-3.488312	1.023286	22.099520	-0.300355	-18.648199	-7.481070	18.312117	
